<svg id="Lager_1" data-name="Lager 1" xmlns="http://www.w3.org/2000/svg" viewBox="0 0 391.94 58.65"><defs><style>.cls-1{fill:#c60c30;}</style></defs><path class="cls-1" d="M204.86.5c-5.82,0-11.65.05-17.48,0-1.11,0-1.43.23-1.43,1.4.05,11,0,22.09,0,33.14v1.63l-1.16-.86Q164.21,20,143.62,4.26A17.6,17.6,0,0,0,135.43.81c-4.09-.62-8.21-.15-12.32-.29-.87,0-.65.61-.65,1.07q0,27.95,0,55.88c0,.91.26,1.14,1.16,1.14,5.78,0,11.57-.06,17.35,0,1.2,0,1.57-.23,1.57-1.51-.06-11.09,0-22.18,0-33.27a2.4,2.4,0,0,1,.15-1.36l.79.58Q164,38.78,184.52,54.53a19.06,19.06,0,0,0,9.63,3.86c3.54.42,7.11.07,10.66.22,1.05,0,1.26-.32,1.25-1.29q0-27.81,0-55.62C206.07.74,205.83.49,204.86.5Z"/><path class="cls-1" d="M112.61.29c-6.64,0-13.28,0-19.91,0-1,0-1.17.3-1.17,1.22,0,9.33,0,18.66,0,28s0,18.66,0,28c0,.82.09,1.19,1.07,1.18q10-.06,20.05,0c.88,0,1-.29,1-1.09q0-28.11,0-56.22C113.69.48,113.43.28,112.61.29Z"/><path class="cls-1" d="M83,20.58a53.21,53.21,0,0,0-.16-12.42A8.13,8.13,0,0,0,78.53,1.8,12,12,0,0,0,72.7.52Q37,.52,1.36.5C.32.5,0,.72,0,1.82Q.06,29.56,0,57.29c0,1.11.34,1.32,1.37,1.32,10.07,0,20.14,0,30.21,0q20.43,0,40.88,0c6.51,0,10.45-3.81,10.62-10.28.09-3.47.08-6.94,0-10.4-.13-5.19-2.85-8.24-8-9.13l-.5-.42C79.52,27.72,82.57,25.11,83,20.58ZM63.55,42.23A3.33,3.33,0,0,1,60,45.8c-3.55.05-7.11,0-10.67,0-9.3,0-18.6,0-27.9,0-1.16,0-1.42-.32-1.39-1.43.08-2.78.06-5.56,0-8.34,0-.9.24-1.16,1.14-1.15,6.51,0,13,0,19.54,0H59.52c2.86,0,4,1.19,4,4.07C63.55,40.09,63.58,41.16,63.55,42.23ZM62.6,21.85a4.35,4.35,0,0,1-2.91.81q-9.57,0-19.14,0c-6.43,0-12.85,0-19.28,0-.95,0-1.23-.23-1.21-1.2.06-2.44,0-4.88,0-7.31,0-.82.25-1,1-1q19.28,0,38.54,0a4.48,4.48,0,0,1,3,.88C64,15.27,64,20.69,62.6,21.85Z"/><path class="cls-1" d="M296.7,3.69C294.61.81,291.58,0,288.23,0H257c-10.46,0-20.92,0-31.38,0-6.5,0-10.52,3.84-10.54,10.19,0,15.75,0,31.51,0,47.27,0,.91.26,1.14,1.15,1.14,5.92,0,11.83,0,17.75,0,1,0,1.16-.36,1.15-1.25,0-5.27,0-10.53,0-15.8,0-.87.19-1.16,1.12-1.15q20.64,0,41.27,0c.94,0,1.12.3,1.11,1.16,0,5.31,0,10.62,0,15.93,0,.79.14,1.11,1,1.11q9-.06,18,0c.86,0,1.05-.27,1.05-1.09,0-15.84,0-31.69,0-47.53A10.45,10.45,0,0,0,296.7,3.69Zm-19.3,24c-6.85,0-13.7,0-20.56,0s-13.62,0-20.43,0c-1,0-1.4-.18-1.37-1.3.08-3,0-6.08,0-9.12,0-2.72,1.28-4,4-4h35.46c2.73,0,4,1.26,4,4,0,3.08,0,6.16,0,9.24C278.57,27.47,278.28,27.68,277.4,27.67Z"/><path class="cls-1" d="M391.69,57.5c-2.85-4.87-5.55-9.83-8.62-14.57A10.42,10.42,0,0,0,380.43,40a9.42,9.42,0,0,0,7.87-5.33,12.16,12.16,0,0,0,1.28-5.45c.07-6.25.15-12.51,0-18.75s-4.09-10-10.33-10q-35.23,0-70.46,0c-1.07,0-1.25.35-1.24,1.3.05,7.88.05,15.76.06,23.63q0,15.93,0,31.86c0,1,.24,1.31,1.27,1.3,5.83,0,11.66-.06,17.49,0,1.13,0,1.31-.36,1.3-1.38-.05-5.18,0-10.36-.05-15.54,0-1,.27-1.2,1.22-1.2,9.56,0,19.12,0,28.67,0a7.05,7.05,0,0,1,6.7,3.92c2.41,4.43,4.94,8.79,7.41,13.2a1.49,1.49,0,0,0,1.46,1c6,0,12,0,18,0C392,58.5,392.17,58.3,391.69,57.5ZM371.12,23.87c-.05,2.47-1.37,3.77-3.86,3.78q-9.57,0-19.15,0c-6.39,0-12.77,0-19.16,0-1.09,0-1.33-.31-1.32-1.35.07-4,.05-8,0-12.07,0-.83.2-1.09,1.06-1.09,12.81,0,25.63,0,38.44,0,2.76,0,4,1.34,4,4.13C371.16,19.51,371.16,21.69,371.12,23.87Z"/></svg>